<svg xmlns="http://www.w3.org/2000/svg" xmlns:xlink="http://www.w3.org/1999/xlink" width="500" zoomAndPan="magnify" viewBox="0 0 375 54.75" height="73" preserveAspectRatio="xMidYMid meet" version="1.0"><defs><filter x="0%" y="0%" width="100%" height="100%" id="d6c94fc6bc"><feColorMatrix values="0 0 0 0 1 0 0 0 0 1 0 0 0 0 1 0 0 0 1 0" color-interpolation-filters="sRGB"/></filter><clipPath id="2a6cc967c9"><path d="M 2 0 L 373 0 L 373 54.5 L 2 54.5 Z M 2 0 " clip-rule="nonzero"/></clipPath><mask id="5d6e3b1fbb"><g filter="url(#d6c94fc6bc)"><rect x="-37.5" width="450" fill="#000000" y="-5.475" height="65.7" fill-opacity="0.2863"/></g></mask><clipPath id="fd21a43f39"><path d="M 0.523438 0 L 370.59375 0 L 370.59375 54.5 L 0.523438 54.5 Z M 0.523438 0 " clip-rule="nonzero"/></clipPath><clipPath id="8fc4f01e1f"><rect x="0" width="371" y="0" height="55"/></clipPath></defs><g clip-path="url(#2a6cc967c9)"><g mask="url(#5d6e3b1fbb)"><g transform="matrix(1, 0, 0, 1, 2, -0.000000000000013281)"><g clip-path="url(#8fc4f01e1f)"><g clip-path="url(#fd21a43f39)"><path fill="#000000" d="M 296.871094 47.765625 L 290.257812 41.128906 L 363.210938 41.128906 C 363.566406 42.777344 365.023438 44.015625 366.777344 44.015625 C 368.789062 44.015625 370.414062 42.375 370.414062 40.355469 C 370.414062 38.34375 368.789062 36.703125 366.777344 36.703125 C 365.023438 36.703125 363.566406 37.941406 363.210938 39.589844 L 288.726562 39.589844 L 269.289062 20.085938 L 268.75 19.863281 L 209.984375 19.863281 L 209.605469 19.964844 L 188.4375 32.234375 L 151.089844 32.234375 L 103.117188 4.425781 L 141.933594 4.425781 L 168.035156 19.550781 C 167.925781 19.90625 167.859375 20.285156 167.859375 20.671875 C 167.859375 22.691406 169.492188 24.324219 171.5 24.324219 C 173.511719 24.324219 175.144531 22.691406 175.144531 20.671875 C 175.144531 18.652344 173.511719 17.019531 171.5 17.019531 C 170.433594 17.019531 169.464844 17.488281 168.796875 18.222656 L 142.519531 2.992188 L 142.140625 2.886719 L 7.789062 2.886719 C 7.433594 1.238281 5.976562 0 4.222656 0 C 2.210938 0 0.585938 1.632812 0.585938 3.652344 C 0.585938 5.671875 2.210938 7.304688 4.222656 7.304688 C 5.976562 7.304688 7.433594 6.074219 7.789062 4.425781 L 100.0625 4.425781 L 122.726562 17.5625 L 40.207031 17.5625 C 39.851562 15.914062 38.394531 14.671875 36.644531 14.671875 C 34.632812 14.671875 33.003906 16.3125 33.003906 18.324219 C 33.003906 20.34375 34.632812 21.984375 36.644531 21.984375 C 38.390625 21.984375 39.851562 20.746094 40.207031 19.097656 L 125.378906 19.097656 L 150.507812 33.664062 L 150.890625 33.769531 L 185.78125 33.769531 L 166.453125 44.972656 L 91.421875 44.972656 C 91.066406 43.328125 89.609375 42.085938 87.855469 42.085938 C 85.84375 42.085938 84.21875 43.71875 84.21875 45.738281 C 84.21875 47.757812 85.84375 49.394531 87.855469 49.394531 C 89.609375 49.394531 91.066406 48.160156 91.421875 46.511719 L 166.652344 46.511719 L 167.039062 46.40625 L 189.011719 33.664062 L 197.328125 28.847656 L 235.804688 28.847656 L 213.472656 41.789062 C 212.808594 41.046875 211.847656 40.585938 210.773438 40.585938 C 208.761719 40.585938 207.136719 42.21875 207.136719 44.238281 C 207.136719 46.257812 208.761719 47.894531 210.773438 47.894531 C 212.785156 47.894531 214.414062 46.257812 214.414062 44.238281 C 214.414062 43.847656 214.355469 43.46875 214.242188 43.117188 L 238.859375 28.847656 L 275.855469 28.847656 L 295.785156 48.851562 C 295.421875 49.421875 295.207031 50.105469 295.207031 50.839844 C 295.207031 52.851562 296.832031 54.492188 298.847656 54.492188 C 300.859375 54.492188 302.484375 52.851562 302.484375 50.839844 C 302.484375 48.820312 300.859375 47.179688 298.847656 47.179688 C 298.113281 47.179688 297.441406 47.394531 296.871094 47.765625 Z M 199.984375 27.308594 L 210.183594 21.398438 L 268.429688 21.398438 L 274.324219 27.308594 Z M 199.984375 27.308594 " fill-opacity="1" fill-rule="nonzero"/></g></g></g></g></g></svg>