<svg xmlns="http://www.w3.org/2000/svg" xmlns:xlink="http://www.w3.org/1999/xlink" width="500" zoomAndPan="magnify" viewBox="0 0 375 54.75" height="73" preserveAspectRatio="xMidYMid meet" version="1.0"><defs><filter x="0%" y="0%" width="100%" height="100%" id="d9474a4b10"><feColorMatrix values="0 0 0 0 1 0 0 0 0 1 0 0 0 0 1 0 0 0 1 0" color-interpolation-filters="sRGB"/></filter><clipPath id="c8939bf0d6"><path d="M 30 0 L 374.148438 0 L 374.148438 54.5 L 30 54.5 Z M 30 0 " clip-rule="nonzero"/></clipPath><mask id="e2d5c09e4e"><g filter="url(#d9474a4b10)"><rect x="-37.5" width="450" fill="#000000" y="-5.475" height="65.7" fill-opacity="0.2863"/></g></mask><clipPath id="ec58999afc"><path d="M 0.714844 0 L 344.148438 0 L 344.148438 54.5 L 0.714844 54.5 Z M 0.714844 0 " clip-rule="nonzero"/></clipPath><clipPath id="3c380c07bc"><rect x="0" width="345" y="0" height="55"/></clipPath></defs><g clip-path="url(#c8939bf0d6)"><g mask="url(#e2d5c09e4e)"><g transform="matrix(1, 0, 0, 1, 30, -0.000000000000013281)"><g clip-path="url(#3c380c07bc)"><g clip-path="url(#ec58999afc)"><path fill="#000000" d="M 297.15625 47.765625 L 290.546875 41.128906 L 363.496094 41.128906 C 363.851562 42.777344 365.308594 44.015625 367.0625 44.015625 C 369.074219 44.015625 370.703125 42.375 370.703125 40.355469 C 370.703125 38.34375 369.074219 36.703125 367.0625 36.703125 C 365.308594 36.703125 363.851562 37.941406 363.496094 39.589844 L 289.015625 39.589844 L 269.574219 20.085938 L 269.035156 19.863281 L 210.269531 19.863281 L 209.890625 19.964844 L 188.722656 32.234375 L 151.378906 32.234375 L 103.402344 4.425781 L 142.222656 4.425781 L 168.324219 19.550781 C 168.210938 19.90625 168.144531 20.285156 168.144531 20.671875 C 168.144531 22.691406 169.78125 24.324219 171.785156 24.324219 C 173.796875 24.324219 175.433594 22.691406 175.433594 20.671875 C 175.433594 18.652344 173.796875 17.019531 171.785156 17.019531 C 170.71875 17.019531 169.75 17.488281 169.085938 18.222656 L 142.804688 2.992188 L 142.429688 2.886719 L 8.074219 2.886719 C 7.722656 1.238281 6.265625 0 4.511719 0 C 2.5 0 0.871094 1.632812 0.871094 3.652344 C 0.871094 5.671875 2.5 7.304688 4.511719 7.304688 C 6.265625 7.304688 7.722656 6.074219 8.074219 4.425781 L 100.347656 4.425781 L 123.011719 17.5625 L 40.496094 17.5625 C 40.140625 15.914062 38.683594 14.671875 36.929688 14.671875 C 34.917969 14.671875 33.289062 16.3125 33.289062 18.324219 C 33.289062 20.34375 34.917969 21.984375 36.929688 21.984375 C 38.675781 21.984375 40.140625 20.746094 40.496094 19.097656 L 125.667969 19.097656 L 150.792969 33.664062 L 151.179688 33.769531 L 186.066406 33.769531 L 166.742188 44.972656 L 91.710938 44.972656 C 91.355469 43.328125 89.898438 42.085938 88.144531 42.085938 C 86.132812 42.085938 84.503906 43.71875 84.503906 45.738281 C 84.503906 47.757812 86.132812 49.394531 88.144531 49.394531 C 89.898438 49.394531 91.355469 48.160156 91.710938 46.511719 L 166.941406 46.511719 L 167.324219 46.40625 L 189.300781 33.664062 L 197.613281 28.847656 L 236.089844 28.847656 L 213.761719 41.789062 C 213.09375 41.046875 212.132812 40.585938 211.0625 40.585938 C 209.050781 40.585938 207.421875 42.21875 207.421875 44.238281 C 207.421875 46.257812 209.050781 47.894531 211.0625 47.894531 C 213.074219 47.894531 214.699219 46.257812 214.699219 44.238281 C 214.699219 43.847656 214.640625 43.46875 214.53125 43.117188 L 239.144531 28.847656 L 276.144531 28.847656 L 296.070312 48.851562 C 295.707031 49.421875 295.492188 50.105469 295.492188 50.839844 C 295.492188 52.851562 297.121094 54.492188 299.132812 54.492188 C 301.144531 54.492188 302.773438 52.851562 302.773438 50.839844 C 302.773438 48.820312 301.144531 47.179688 299.132812 47.179688 C 298.402344 47.179688 297.726562 47.394531 297.15625 47.765625 Z M 200.269531 27.308594 L 210.46875 21.398438 L 268.71875 21.398438 L 274.613281 27.308594 Z M 200.269531 27.308594 " fill-opacity="1" fill-rule="nonzero"/></g></g></g></g></g></svg>