<svg xmlns="http://www.w3.org/2000/svg" xmlns:xlink="http://www.w3.org/1999/xlink" width="500" zoomAndPan="magnify" viewBox="0 0 375 54.75" height="73" preserveAspectRatio="xMidYMid meet" version="1.0"><defs><filter x="0%" y="0%" width="100%" height="100%" id="fb564a6054"><feColorMatrix values="0 0 0 0 1 0 0 0 0 1 0 0 0 0 1 0 0 0 1 0" color-interpolation-filters="sRGB"/></filter><clipPath id="ea747addee"><path d="M 2 0 L 373 0 L 373 54.5 L 2 54.5 Z M 2 0 " clip-rule="nonzero"/></clipPath><mask id="07552d8644"><g filter="url(#fb564a6054)"><rect x="-37.5" width="450" fill="#000000" y="-5.475" height="65.7" fill-opacity="0.2863"/></g></mask><clipPath id="01efad4e96"><path d="M 0.523438 0 L 370.59375 0 L 370.59375 54.5 L 0.523438 54.5 Z M 0.523438 0 " clip-rule="nonzero"/></clipPath><clipPath id="7fa1d8a66a"><rect x="0" width="371" y="0" height="55"/></clipPath></defs><g clip-path="url(#ea747addee)"><g mask="url(#07552d8644)"><g transform="matrix(1, 0, 0, 1, 2, -0.000000000000013281)"><g clip-path="url(#7fa1d8a66a)"><g clip-path="url(#01efad4e96)"><path fill="#000000" d="M 74.128906 47.765625 L 80.742188 41.128906 L 7.789062 41.128906 C 7.433594 42.777344 5.976562 44.015625 4.222656 44.015625 C 2.210938 44.015625 0.585938 42.375 0.585938 40.355469 C 0.585938 38.34375 2.210938 36.703125 4.222656 36.703125 C 5.976562 36.703125 7.433594 37.941406 7.789062 39.589844 L 82.273438 39.589844 L 101.710938 20.085938 L 102.25 19.863281 L 161.015625 19.863281 L 161.394531 19.964844 L 182.5625 32.234375 L 219.910156 32.234375 L 267.882812 4.425781 L 229.066406 4.425781 L 202.964844 19.550781 C 203.074219 19.90625 203.140625 20.285156 203.140625 20.671875 C 203.140625 22.691406 201.507812 24.324219 199.5 24.324219 C 197.488281 24.324219 195.855469 22.691406 195.855469 20.671875 C 195.855469 18.652344 197.488281 17.019531 199.5 17.019531 C 200.566406 17.019531 201.535156 17.488281 202.203125 18.222656 L 228.480469 2.992188 L 228.859375 2.886719 L 363.210938 2.886719 C 363.566406 1.238281 365.023438 0 366.777344 0 C 368.789062 0 370.414062 1.632812 370.414062 3.652344 C 370.414062 5.671875 368.789062 7.304688 366.777344 7.304688 C 365.023438 7.304688 363.566406 6.074219 363.210938 4.425781 L 270.9375 4.425781 L 248.273438 17.5625 L 330.792969 17.5625 C 331.148438 15.914062 332.605469 14.671875 334.355469 14.671875 C 336.367188 14.671875 337.996094 16.3125 337.996094 18.324219 C 337.996094 20.34375 336.367188 21.984375 334.355469 21.984375 C 332.609375 21.984375 331.148438 20.746094 330.792969 19.097656 L 245.621094 19.097656 L 220.492188 33.664062 L 220.109375 33.769531 L 185.21875 33.769531 L 204.546875 44.972656 L 279.578125 44.972656 C 279.933594 43.328125 281.390625 42.085938 283.144531 42.085938 C 285.15625 42.085938 286.78125 43.71875 286.78125 45.738281 C 286.78125 47.757812 285.15625 49.394531 283.144531 49.394531 C 281.390625 49.394531 279.933594 48.160156 279.578125 46.511719 L 204.347656 46.511719 L 203.960938 46.40625 L 181.988281 33.664062 L 173.671875 28.847656 L 135.195312 28.847656 L 157.527344 41.789062 C 158.191406 41.046875 159.152344 40.585938 160.226562 40.585938 C 162.238281 40.585938 163.863281 42.21875 163.863281 44.238281 C 163.863281 46.257812 162.238281 47.894531 160.226562 47.894531 C 158.214844 47.894531 156.585938 46.257812 156.585938 44.238281 C 156.585938 43.847656 156.644531 43.46875 156.757812 43.117188 L 132.140625 28.847656 L 95.144531 28.847656 L 75.214844 48.851562 C 75.578125 49.421875 75.792969 50.105469 75.792969 50.839844 C 75.792969 52.851562 74.167969 54.492188 72.152344 54.492188 C 70.140625 54.492188 68.515625 52.851562 68.515625 50.839844 C 68.515625 48.820312 70.140625 47.179688 72.152344 47.179688 C 72.886719 47.179688 73.558594 47.394531 74.128906 47.765625 Z M 171.015625 27.308594 L 160.816406 21.398438 L 102.570312 21.398438 L 96.675781 27.308594 Z M 171.015625 27.308594 " fill-opacity="1" fill-rule="nonzero"/></g></g></g></g></g></svg>