<?xml version="1.0" encoding="UTF-8"?>
<!DOCTYPE svg PUBLIC "-//W3C//DTD SVG 1.1//EN" "http://www.w3.org/Graphics/SVG/1.1/DTD/svg11.dtd">
<!-- Creator: CorelDRAW 2020 (64 Bit) -->
<svg xmlns="http://www.w3.org/2000/svg" xml:space="preserve" width="1024px" height="768px" version="1.1" style="shape-rendering:geometricPrecision; text-rendering:geometricPrecision; image-rendering:optimizeQuality; fill-rule:evenodd; clip-rule:evenodd"
viewBox="0 0 1024 768"
 xmlns:xlink="http://www.w3.org/1999/xlink"
 xmlns:xodm="http://www.corel.com/coreldraw/odm/2003">
 <defs>
  <style type="text/css">
   <![CDATA[
    .str0 {stroke:#FEFEFE;stroke-width:2.36;stroke-miterlimit:22.9256}
    .fil0 {fill:#FEFEFE}
   ]]>
  </style>
   <clipPath id="id0">
    <rect x="131.32" y="290.91" width="735.6" height="162.39"/>
   </clipPath>
 </defs>
 <g id="Camada_x0020_1">
  <metadata id="CorelCorpID_0Corel-Layer"/>
  <g style="clip-path:url(#id0)">
   <image x="131.32" y="290.91" width="735.6" height="162.39" xlink:href="logo_vacsense_branco_Images\logo_vacsense_branco_ImgID1.png"/>
  </g>
  <g id="_1584713037744">
   <path class="fil0 str0" d="M445.52 362.67c0,4.51 1.24,10.29 4.46,13.55 3.31,3.33 5.61,5 10.32,6.97 2.83,1.18 5.5,2.07 8.61,2.97 3.94,1.14 13.85,3.39 16.74,6.27 1.02,1.02 1.91,1.88 2.15,3.58 0.24,1.77 0.08,3.43 -0.74,4.62 -1.97,2.88 -5.94,3.21 -9.81,3.21 -5.44,0 -12.15,-2.14 -15.96,-3.91 -3.23,-1.5 -6.53,-3.42 -9.48,-5.38 -0.56,-0.37 -2.49,-1.81 -3.15,-1.86l-4.24 7.76c-0.7,1.41 -1.36,2.61 -2.05,3.96 -0.31,0.62 -0.65,1.36 -0.91,2.09l-0.8 2.34c3.95,1.9 3.76,2.02 7.57,4.3 7.68,4.59 18.62,7.99 27.88,7.99 6.28,0 11.3,-0.42 17.11,-2.75 1.97,-0.79 2.83,-1.29 4.62,-2.25 0.73,-0.4 1.36,-0.86 2.09,-1.34l3.66 -3.05c0.34,-0.39 0.39,-0.55 0.79,-0.94 2.77,-2.72 5.61,-8.77 5.61,-13.11 0,-4.35 -0.09,-6.05 -1.76,-10.25 -0.46,-1.17 -0.96,-2.11 -1.57,-3.14 -3.14,-5.27 -8.42,-7.71 -13.97,-9.91 -1.11,-0.44 -2.31,-0.8 -3.52,-1.2 -1.2,-0.4 -2.45,-0.76 -3.63,-1.09 -2.98,-0.82 -14.04,-3.93 -16.68,-7.04 -1.67,-1.97 -1.97,-3.96 -0.66,-6.3 0.51,-0.92 0.88,-1.29 1.65,-1.92 7.85,-6.45 30.06,6.81 31.99,6.97l7.58 -16.15c-2.2,-1.47 -1.69,-1.79 -5.82,-3.77 -6.38,-3.06 -16.55,-5.24 -23.77,-5.24 -6.46,0 -9.53,-0.01 -15.84,1.75 -3.17,0.88 -6.87,2.55 -9.24,4.34l-1.84 1.45c-1.73,1.67 -3.48,3.53 -4.58,5.71 -0.79,1.56 -1.44,3.02 -1.92,4.79 -0.48,1.75 -0.89,3.81 -0.89,5.98z"/>
   <path class="fil0 str0" d="M131.32 378.68c0,13.93 1.8,23.8 6.42,36.61 0.94,2.62 1.93,4.58 2.98,7.03 1.14,2.69 4.46,8.46 5.93,10.79l4.74 6.97c1.49,1.99 4.27,5.54 5.99,7.32 0.55,0.57 0.64,0.86 1.57,1.72 0.35,0.33 0.55,0.42 0.93,0.78 1.51,1.44 4.54,3.25 6.89,3.25 2.15,0 3.05,0.08 4.96,-1.04 2.3,-1.34 4.37,-3.81 4.93,-6.52 0.34,-1.68 0.35,-2.69 -0.08,-4.38 -0.2,-0.79 -0.5,-1.37 -0.85,-2.02 -0.35,-0.65 -0.66,-1.09 -1.07,-1.64l-6.56 -7.45c-1.74,-1.86 -4.44,-5.9 -5.77,-8.1 -0.33,-0.56 -0.72,-1.19 -1.04,-1.82 -2.02,-3.97 -3.63,-7.26 -5.22,-11.64 -1.01,-2.79 -1.91,-5.54 -2.68,-8.62 -4.01,-16.1 -3.6,-34.07 2.6,-49.46 1.77,-4.39 3.85,-8.78 6.44,-12.72 0.39,-0.6 0.7,-1.05 1.08,-1.63l3.47 -4.69 5.69 -6.45c0.33,-0.34 0.35,-0.46 0.65,-0.79 1.63,-1.83 3.6,-4 3.6,-7.4 0,-5.33 -4.28,-9.86 -9.57,-9.86 -4.74,0 -9.35,4.9 -11.99,8.17l-2.98 3.73c-6.71,8.94 -12.51,18.87 -15.88,29.59 -0.16,0.51 -0.23,0.8 -0.41,1.3 -2.79,8.32 -4.77,19.98 -4.77,28.97z"/>
   <path class="fil0 str0" d="M847.63 380.39l-0.23 5.35c-0.22,1.45 -0.21,3.19 -0.48,5.1 -1.41,9.97 -3.61,16.97 -7.96,25.77 -0.35,0.69 -0.61,1.07 -0.96,1.76 -0.31,0.64 -0.66,1.21 -1.03,1.83 -2.63,4.34 -3.95,6.13 -6.92,9.94 -0.82,1.04 -1.73,1.98 -2.56,3.02l-2.7 3.02c-2.5,3.05 -4.53,7.5 -2.47,11.69 0.45,0.91 1.16,2.01 1.94,2.63 0.97,0.76 1.52,1.33 2.76,1.82 4.82,1.92 8.49,0.41 12,-3.06 2.55,-2.53 4.87,-5.04 7.12,-7.89 6.82,-8.69 12.77,-20.05 15.87,-30.58 1.69,-5.73 2.86,-9.98 3.75,-16.27 3.04,-21.59 -0.3,-41.05 -9.99,-60.44 -3.06,-6.14 -6.4,-10.9 -10.67,-16.2l-3.8 -4.49c-0.3,-0.33 -0.57,-0.53 -0.84,-0.87 -1.26,-1.59 -3.65,-3.88 -5.41,-4.74 -1.53,-0.76 -3.51,-1.18 -5.66,-0.8 -3.44,0.6 -6.25,3.25 -7.33,6.1 -0.62,1.63 -0.87,3.77 -0.44,5.7 0.43,1.96 3.88,6.31 5.46,7.97l6.15 7.29c1,1.34 1.86,2.65 2.76,4.1 3.78,6.15 6.06,11.65 8.22,18.65 0.49,1.58 1.03,3.7 1.38,5.34 0.4,1.9 0.78,3.71 1.04,5.68 0.59,4.3 1,8.15 1,12.58z"/>
   <path class="fil0 str0" d="M605.62 367.67c0,-3.41 -0.14,-6.42 -0.14,-9.72l-20.16 0 0 62.33 20.16 -0.15 0 -28.16c0,-9.21 3.24,-16.15 12.43,-16.15 8.96,0 10.58,6.4 10.58,15.3l0 29.16 20.3 0c0,-7.74 0.57,-14.78 0.57,-22.16 0,-6.97 0.2,-13.45 -1.11,-20.19 -1.35,-7 -3.59,-13.71 -9.58,-17.72 -3.88,-2.59 -7.45,-3.12 -12.61,-3.12 -5.99,0 -10.68,1.67 -14.56,4.74 -0.77,0.6 -1.29,1.18 -1.99,1.87 -1.04,1.05 -3.05,3.41 -3.89,3.97z"/>
   <path class="fil0 str0" d="M341.03 407.13c-2.77,0 -4.79,-0.32 -6.83,-2.05 -4.2,-3.56 -3.96,-10.77 5.11,-11.25 4.7,-0.25 8.28,-0.06 13.01,0.03 0,4.77 0.12,7.39 -3.04,10.23 -1.44,1.29 -5.52,3.04 -8.25,3.04zm-24.45 -42.89c0,0.45 2.24,5.8 2.55,6.6 0.45,1.1 0.87,2.23 1.29,3.28l1.31 3.27c0.71,-0.06 3.51,-1.05 4.37,-1.34 1.5,-0.5 2.82,-0.93 4.33,-1.39 1.43,-0.44 2.98,-0.82 4.58,-1.14 5.93,-1.18 13.65,-1.84 16.49,4.83 0.52,1.22 0.82,2.93 0.82,4.47 -9.72,0 -24.25,-1.28 -31.85,3.61 -9.06,5.81 -10.69,18.49 -4.34,27l1.78 2.09c0.31,0.26 0.39,0.26 0.71,0.57 4.17,4.07 10.81,5.19 16.83,5.19 3.66,0 7.17,-1.18 9.58,-2.43 0.61,-0.32 1.27,-0.74 1.88,-1.12 1.09,-0.68 4.77,-3.43 5.41,-3.6l0 6.15 20.3 0 0 -36.88c0,-7.85 -0.53,-13.62 -5.97,-19.05 -2.68,-2.68 -5.22,-4.04 -8.77,-5.24 -7.49,-2.51 -17.31,-2.31 -24.96,-0.98 -1.53,0.27 -3.02,0.64 -4.56,1.02 -1.48,0.37 -2.94,0.77 -4.29,1.29 -0.99,0.39 -7.49,3.09 -7.49,3.8z"/>
   <path class="fil0 str0" d="M744.28 371.82c2.54,0 3.52,-0.04 5.95,1.19 3.81,1.91 6.2,6.55 6.2,10.53l-24.02 0c0.16,-0.32 0.19,-0.77 0.29,-1.15l1.19 -3.24c0.33,-0.66 0.63,-1.22 1.03,-1.82 0.82,-1.2 1.71,-2.17 2.84,-3.03 0.55,-0.41 1.21,-0.84 1.84,-1.15 1.22,-0.61 2.94,-1.33 4.68,-1.33zm0 49.31c7.47,0 15.55,-1.66 21.24,-5.48 0.51,-0.35 0.88,-0.59 1.37,-0.92 1.03,-0.69 4.83,-3.94 4.83,-4.46 0,-1.69 -8.75,-10.44 -10.15,-10.44 -0.24,0 -2.62,1.58 -3.03,1.83 -4.61,2.89 -8.07,4.54 -14.02,3.65 -2.45,-0.36 -4.92,-1.09 -6.78,-2.66 -1.32,-1.12 -1.99,-1.87 -2.93,-3.36 -0.38,-0.61 -0.74,-1.38 -1.03,-2.11l-0.8 -2.35c0.94,0 1.39,-0.15 2.43,-0.14l29.88 0c3.74,0 7.1,-0.14 10.72,-0.14 0,-10.37 -0.92,-20.14 -7.48,-27.98 -5.09,-6.09 -15.11,-9.76 -22.82,-9.76 -5.8,0 -10.39,0.78 -14.87,3 -3.99,1.98 -5.13,2.72 -8.4,5.61 -1.64,1.45 -2.47,2.45 -3.85,4.15 -2.55,3.15 -4.96,8.39 -5.75,12.26 -0.23,1.12 -0.48,2.23 -0.58,3.43 -0.08,0.91 -0.29,3.01 -0.24,3.82 0.28,5.24 0.68,8.23 2.71,13.29 3.02,7.55 8.47,13.08 16.05,16.11 3.68,1.47 8.43,2.65 13.5,2.65z"/>
   <path class="fil0 str0" d="M545.44 371.82c3.92,0 6.16,0.61 8.9,3.68 0.8,0.9 1.52,2.34 1.96,3.46 0.38,0.94 0.98,3.33 1,4.58l-23.87 -0.14c0,-2.57 2.32,-6.11 3.97,-7.76 1.92,-1.92 5.01,-3.82 8.04,-3.82zm-32.16 16.58c0,5.99 0.64,9.38 2.59,14.27 1.9,4.76 3.25,5.94 5.96,9.34 1.15,1.44 4.71,4.08 6.41,5.02l2.57 1.29c8.47,4.27 22.6,3.35 31.27,-0.27 2.14,-0.89 5.42,-2.94 6.98,-4.45l1.22 -1.08c0.54,-0.5 1.97,-1.87 2.32,-2.39 -0.85,-1.6 -5.27,-6.22 -6.69,-7.47 -0.64,-0.57 -2.99,-2.62 -3.32,-3.11 -1.81,1.21 -2,2.21 -6,4 -7.34,3.3 -16.33,2.47 -20.85,-4.6 -0.58,-0.91 -1.78,-3.14 -1.88,-4.4l43.17 0 -0.45 -8.27c-0.76,-6.9 -2.72,-14.06 -6.95,-19.21 -2.69,-3.28 -5.86,-5.7 -10.06,-7.38 -8.77,-3.52 -19.25,-3.69 -28.02,-0.19 -4.22,1.69 -8.3,4.94 -11.11,8.48 -0.58,0.73 -1.19,1.48 -1.69,2.31 -3.27,5.44 -5.47,11 -5.47,18.11z"/>
   <path class="fil0 str0" d="M656.94 376.53c0,3.56 1.58,8.71 3.89,11.12 0.43,0.45 0.59,0.77 1.07,1.22 3.17,3.02 7.18,4.81 11.31,6.12 4.33,1.38 8.95,2.57 13.01,4.29 1.67,0.71 3.79,2.94 2.65,5.33 -0.94,1.96 -4.2,2.52 -6.2,2.52 -4.36,0 -9.96,-1.42 -13.15,-3.01l-7.29 -3.72c-0.43,-0.2 -0.88,-0.35 -1.29,-0.57l-1.92 2.66c-1.58,2.42 -3.55,7.03 -4.23,9.92 0.94,1.4 3.61,2.94 5.19,3.82 0.36,0.2 0.46,0.3 0.81,0.48 9.48,4.86 24.32,5.78 34.58,1.97 3.44,-1.27 7.02,-3.43 9.29,-6.28 0.89,-1.12 1.29,-1.83 1.97,-3.18 3.04,-6.02 2.79,-12.58 -1.27,-18.07 -0.95,-1.27 -1.98,-2.27 -3.15,-3.28 -2.79,-2.39 -6.7,-3.79 -10.09,-4.92 -2.05,-0.69 -11.87,-3.4 -13.12,-4.03 -2.51,-1.25 -2.94,-3.02 -2.61,-5.66 0.11,-0.86 0.29,-0.78 1.07,-1.08 5.55,-2.15 10.13,-0.72 15.23,1.33 1.68,0.68 7.31,3.31 8.99,3.31l6.72 -12.44c-0.45,-0.23 -0.74,-0.44 -1.14,-0.71 -5.99,-4.01 -16.46,-6.58 -23.16,-6.58 -6.07,0 -10.57,0.5 -15.78,3.1 -6.12,3.06 -11.38,9.05 -11.38,16.34z"/>
   <path class="fil0 str0" d="M379.05 388.26c0,8.02 1.02,13.81 5.2,20.09 1.17,1.76 1.99,2.6 3.48,4.1 5.26,5.26 14.21,8.54 21.91,8.54 6.31,0 10.03,-0.34 15.85,-2.45 2.59,-0.93 4.45,-1.91 6.71,-3.44 1.09,-0.74 1.86,-1.45 2.78,-2.36 1.71,-1.72 3.19,-3.75 3.82,-6.47l-6.98 -4.18c-1.19,-0.72 -2.29,-1.35 -3.5,-2.07 -0.79,-0.47 -2.94,-1.87 -3.67,-2.04 -1.97,1.32 -5.62,6.71 -10.86,6.71l-1.86 0c-12.41,0 -15.42,-17.64 -9.09,-25.67 1.13,-1.43 2.19,-2.27 3.77,-3.23 4.21,-2.55 10.35,-1.89 14.21,1.28 0.43,0.36 0.78,0.58 1.15,1 0.72,0.83 1.22,1.57 1.82,2.47l15.01 -8.15c-0.15,-1.79 -3.34,-5.87 -4.82,-7.18 -9.67,-8.51 -24.8,-10.28 -36.41,-5.61 -4.06,1.64 -8.74,4.66 -11.46,8.13 -1.92,2.46 -3.23,4.36 -4.47,7.39 -1.42,3.48 -2.59,8.28 -2.59,13.14z"/>
   <path class="fil0 str0" d="M794.59 343.23c0,3.42 2.64,6.62 4.19,8.68l4.13 5.58c0.47,0.7 0.83,1.29 1.29,2.01 1.72,2.65 3.06,5.65 4.1,8.9 0.6,1.88 1.45,6.13 1.45,8.27 0,1.11 0.22,2.19 0.08,3.09l-0.49 5.95c-0.52,3.66 -1.36,6.82 -2.7,10.16 -0.87,2.18 -2.01,4.53 -3.27,6.45l-1.32 1.97c-1.79,2.64 -2.41,3.18 -4.35,5.37 -1.72,1.96 -3.11,3.96 -3.11,6.9 0,4.84 3.37,9.86 8.15,9.86l0.86 0c4.61,0 9.68,-4.82 11.99,-7.74l2.82 -3.89c2.15,-3.23 3.07,-5.16 4.72,-8.57 6.4,-13.22 7.5,-28.03 3.77,-42.26 -1.6,-6.1 -4.82,-12.95 -8.29,-18.16 -0.3,-0.45 -0.52,-0.83 -0.83,-1.31 -0.8,-1.29 -3.83,-5.21 -4.92,-6.23 -2.34,-2.19 -5.32,-4.47 -8.83,-4.47 -5.21,0 -9.44,4.61 -9.44,9.44z"/>
   <path class="fil0 str0" d="M169.2 379.54c0,5.92 0.82,11.13 2.03,15.98 0.69,2.73 2.18,7.31 3.45,9.84 3.14,6.25 4.93,9.37 9.63,14.96 3.83,4.55 7.21,7.81 13.44,5.35 4.44,-1.75 7.01,-7.34 5.48,-11.4 -0.93,-2.46 -4.52,-6.87 -6.26,-9.19 -1.81,-2.42 -3.33,-4.99 -4.7,-7.72 -2.07,-4.13 -3.77,-9.85 -3.77,-14.82 0,-5.42 0.23,-9.04 1.81,-14.35 1.68,-5.63 5.14,-12.43 9.24,-16.63 0.29,-0.3 0.44,-0.55 0.71,-0.87 1.82,-2.22 3.39,-5.2 3.39,-8.32 0,-4.83 -5.1,-8.43 -9.14,-8.43l-1.29 0c-4.95,0 -11.27,7.87 -13.82,12.19l-1.65 2.64c-0.57,0.95 -1.04,1.86 -1.59,2.85 -1.71,3.05 -4,9.3 -4.84,12.59 -1.15,4.47 -2.12,9.67 -2.12,15.33z"/>
   <path class="fil0 str0" d="M274.05 390.83c0.42,0.25 1.31,0.04 1.87,0.21 0.56,0.16 0.09,0.17 0.78,0.22 0.35,0.03 0.62,-0.05 1,0 0.4,0.05 0.46,0.16 0.77,0.24 1.84,0.5 2.35,0.53 3.33,2.67 0.12,0.26 0.22,0.38 0.29,0.8 0.62,3.87 -3.97,7.59 -6.75,9.5 -0.7,0.47 -1.59,0.82 -2.2,1.39 -0.04,0.04 -0.03,0.43 -0.17,0.17 -0.01,-0.02 -0.05,0.06 -0.08,0.09l0.08 0.68c0.06,0.31 0.43,1.06 0.53,1.38 0.33,1.04 1.18,3.53 1.29,4.33l0.27 -0.1c1.03,0.06 3.14,0.02 3.69,0.21l1.81 0.79 1.1 1.05c0.07,0.11 0.11,0.19 0.15,0.28l0.26 1.09c0.02,1.52 -0.2,2.48 -1.4,3.7 -1.16,1.2 -1.1,0.91 -2.08,1.77l-0.77 0.55 5.03 0 31.3 -81.2 -21.58 0c-0.18,0.37 -0.35,1.15 -0.49,1.66l-3.71 11.3c-1.51,4.3 -3.01,8.37 -4.54,12.61 -0.37,1.03 -0.7,2.1 -1.07,3.22l-3.29 9.58c-0.43,1.28 -2.86,8.66 -3.35,9.52 -0.56,0.98 -0.85,1.92 -2.07,2.29z"/>
   <path class="fil0 str0" d="M236.67 356.67c-1.08,0.43 -0.92,2.5 -0.4,3.7 0.96,2.24 2.03,5.46 2.97,7.78 0.59,1.43 1.28,2.76 1.82,4.31 0.33,0.94 0.71,1.44 0.94,2.15l8.37 25.54c0.43,1.1 0.91,2.64 1.66,2.91 0.24,0.08 1.06,0.29 1.24,0.32 0.85,0.13 2.26,0.09 3.14,0.06 1.68,-0.07 3.87,-0.52 5.26,-0.95l4.93 -2.62 1.73 -1.42c0.14,-0.11 0.25,-0.21 0.36,-0.33l0.19 -0.22c0.39,-0.51 -0.31,0.57 0.17,-0.25 0.02,-0.04 0.08,-0.15 0.1,-0.18 0.24,-0.48 -0.01,0.06 0.13,-0.3 0.55,-1.44 0.01,-2.22 -0.21,-3.1 -0.47,-1.8 -1.89,-5.27 -1.84,-6.16 0.84,-0.27 1.53,-0.98 2.18,-1.32l0 -0.48c-0.11,-0.09 -0.35,-0.11 -0.43,-0.14 -0.76,0.1 -0.24,0.08 -0.45,0.24 -0.02,0.02 -0.05,0.05 -0.08,0.07l-0.39 0.33c-0.39,0.31 -0.61,0.56 -1.26,0.67 -0.34,-0.77 -0.42,-1.51 -1.01,-2.85 -0.33,-0.74 -1.13,-2.32 -0.83,-3.07 -0.32,0.1 -0.42,0.15 -0.83,0.16 0.14,-0.26 0.24,-0.3 0.5,-0.48 0.17,-0.12 0.17,-0.09 0.33,-0.23 0.03,-0.02 0.06,-0.05 0.09,-0.08l0.23 -0.27c-0.72,0.14 -0.36,0.18 -0.87,0.35 -0.34,-0.66 -0.7,-1.73 -1,-2.55 -0.36,-0.98 -0.69,-1.65 -0.92,-2.58l2.03 -0.71c0.31,-0.13 0.15,-0.12 0.7,-0.24l0.04 -0.62c-2,0.01 -1.62,1.2 -3.01,1.01l-0.6 -1.87c-0.02,-0.04 -0.03,-0.07 -0.04,-0.11l-0.24 -0.6c-0.19,-0.42 -0.16,-0.13 -0.3,-0.72 0.37,-0.3 0.38,-0.27 0.81,-0.49 0.53,-0.27 0.32,-0.18 0.7,-0.45 0.01,-0.01 0.28,-0.18 0.42,-0.28l0.28 -0.2c0.37,-0.29 0.28,-0.4 0.7,-0.56 0,-0.69 0.16,-0.59 -0.29,-0.78 -0.75,0.44 -0.73,0.84 -1.59,1.27l-0.18 0.09c-0.57,0.28 -0.65,0.38 -1.31,0.48 -0.26,-1.02 -0.76,-1.93 -0.93,-2.8 1.13,-0.48 1.9,-0.43 3.15,-1.57l-0.14 -0.57c-0.95,0.06 -2.13,1.38 -3.14,1.59 -0.42,-0.3 -1.78,-4.5 -2.08,-5.56l-0.41 -1.01c-0.22,-0.55 -0.61,-1.57 -0.75,-2.17 0.55,-0.42 1.84,-0.51 2.67,-0.96l0.37 -0.22c0.19,-0.08 -0.08,-0.09 0.48,-0.11l0 -0.71c-1,0.04 -2.21,0.79 -3.07,1.18l-0.64 0.17c-0.61,-0.8 -0.89,-2.65 -1.37,-3.72 -0.3,-0.67 -1.26,-3.46 -0.93,-3.93 -1,0.6 -0.5,0.15 -1.02,1.26 -1.19,2.55 -3.53,3.08 -5.27,3.92l-1.02 0.52c-2.82,1.24 -3.19,1.6 -4.94,3.77 -0.69,0.86 -1.2,1.59 -2.52,1.77 -1.26,0.18 -2.21,-0.65 -2.62,-1.55 -0.26,-0.58 -0.41,-1.1 -0.36,-1.83 0.03,-0.65 0.15,-0.8 0.42,-1.34l0.18 -0.36z"/>
   <path class="fil0 str0" d="M229.19 337.13c0.76,0.09 5.12,-0.53 6.05,-0.76 3.56,-0.86 6.53,-2.21 9.45,-4.43l3.73 -3.19c-0.18,1.94 -5.39,5.49 -7.59,6.47 -3.25,1.45 -7.46,2.58 -11.64,1.91zm9.96 -12.06c0.17,0.79 0.87,1.51 1.39,2.28 1.27,1.88 1.99,2.19 0.63,3.81 -0.1,0.12 -0.29,0.32 -0.41,0.43 -1.13,1.06 -5.75,2.84 -7.78,2.18 -1.74,-0.57 -1.37,-1.75 -1.86,-4.98 -0.43,0.21 -0.57,0.22 -1.06,0.39 -0.44,0.15 -0.7,0.29 -1.08,0.49 -0.55,0.29 -1.39,0.84 -1.85,1.3 -2.56,2.55 -2.74,3.06 -1.38,6.46l3.69 10.03c0.01,0.03 0.02,0.07 0.04,0.11l0.21 0.64c0.06,0.16 0.15,0.44 0.22,0.64l2 5.86c0.16,0.53 0.23,0.73 0.35,1.23 0.2,0.85 0.47,1.58 0.72,2.42 0.01,0.04 0.02,0.08 0.03,0.11l1.14 3.58c0.01,0.03 0.02,0.07 0.04,0.1l3.03 7.55c0.18,0.37 0.32,0.68 0.49,1.08l1.01 2.42c0.01,0.04 0.03,0.07 0.04,0.11 0.01,0.03 0.03,0.07 0.04,0.1 0.01,0.03 0.03,0.07 0.04,0.1 0.07,0.2 0.12,0.41 0.21,0.65 0.08,0.24 0.09,0.24 0.19,0.52l1.95 5.06c0.01,0.03 0.03,0.07 0.04,0.1l0.32 0.96c0.02,0.04 0.03,0.08 0.04,0.11 0.01,0.03 0.02,0.07 0.04,0.11l2.14 6c0.04,0.13 0.06,0.2 0.1,0.33l0.65 1.78c0.01,0.05 0.06,0.17 0.07,0.21l1.21 3.37c0.02,0.03 0.03,0.07 0.04,0.1l1.24 3.2c0.22,0.63 0.95,2.37 0.95,2.86 0.01,0.56 0.03,-0.09 -0.21,0.51 0.71,0.18 0.6,0.23 1.18,1.84 0.3,0.85 0.57,1.52 0.87,2.29 1.14,2.93 1.75,3.43 5.82,3.31 3.23,-0.09 4.53,-0.93 7.69,-1.64 1.27,-0.28 4.71,-2.18 5.91,-3.17 0.65,-0.54 1.05,-1.04 1.6,-1.55 1.07,-1.01 1.94,-2.7 1.57,-4.38 -0.38,-1.72 -1.21,-3.24 -1.5,-4.82l-0.62 -1.65c-0.05,-0.14 -0.05,-0.2 -0.09,-0.33 -0.01,-0.04 -0.02,-0.08 -0.03,-0.12l-0.44 -1.28c-0.15,-0.45 -0.36,-0.79 -0.37,-1.29 -0.65,0.34 -1.34,1.05 -2.18,1.32 -0.05,0.89 1.37,4.36 1.84,6.16 0.22,0.88 0.76,1.66 0.21,3.1 -0.14,0.36 0.11,-0.18 -0.13,0.3 -0.02,0.03 -0.08,0.14 -0.1,0.18 -0.48,0.82 0.22,-0.26 -0.17,0.25l-0.19 0.22c-0.11,0.12 -0.22,0.22 -0.36,0.33l-1.73 1.42 -4.93 2.62c-1.39,0.43 -3.58,0.88 -5.26,0.95 -0.88,0.03 -2.29,0.07 -3.14,-0.06 -0.18,-0.03 -1,-0.24 -1.24,-0.32 -0.75,-0.27 -1.23,-1.81 -1.66,-2.91l-8.37 -25.54c-0.23,-0.71 -0.61,-1.21 -0.94,-2.15 -0.54,-1.55 -1.23,-2.88 -1.82,-4.31 -0.94,-2.32 -2.01,-5.54 -2.97,-7.78 -0.52,-1.2 -0.68,-3.27 0.4,-3.7 0.14,-0.37 0.59,-0.58 0.89,-0.83 0.35,-0.28 0.66,-0.58 1.03,-0.81 1.97,-1.27 3.79,-3.53 5.63,-5.26 4.05,-3.8 8.72,-3.65 9.05,0.14l1.78 -0.76c0.86,-0.42 0.86,-0.75 1.92,-0.78l-5.51 -15.21c-0.08,-0.22 -0.09,-0.22 -0.16,-0.41l-0.92 -2.37c-0.11,-0.32 -0.27,-0.65 -0.37,-0.91 -0.36,-0.94 -0.21,-0.81 -0.73,-1.85 -0.8,-1.6 -1.6,-2.26 -3.29,-2.57 -2.38,-0.44 -1.36,-0.26 -4.31,-0.26 -2.52,-0.01 -1.21,0.05 -2.53,0.28z"/>
   <path class="fil0 str0" d="M246.36 410.7c0.5,-0.32 1.94,-0.14 2.84,-0.23 1.66,-0.16 3.7,-0.15 5.37,-0.63 2.63,-0.76 4.03,-0.94 7.05,-1.97 1.21,-0.41 3.14,-1.03 4.29,-1.51 1.37,-0.58 2.91,-1.21 4.26,-1.74 7.93,-3.13 8.7,-7.2 9.99,-7.97 -0.09,1.09 -1.81,3.15 -2.4,3.81 -2.14,2.4 -4.56,3.35 -7.39,4.65 -6.06,2.8 -9.07,4.16 -15.78,5.35 -1.19,0.21 -7.24,1.13 -8.23,0.24zm24.6 -19.44c0.29,1.58 1.12,3.1 1.5,4.82 0.37,1.68 -0.5,3.37 -1.57,4.38 -0.55,0.51 -0.95,1.01 -1.6,1.55 -1.2,0.99 -4.64,2.89 -5.91,3.17 -3.16,0.71 -4.46,1.55 -7.69,1.64 -4.07,0.12 -4.68,-0.38 -5.82,-3.31 -0.3,-0.77 -0.57,-1.44 -0.87,-2.29 -0.58,-1.61 -0.47,-1.66 -1.18,-1.84 -1.1,0.1 -2.39,1.12 -3.19,1.83l-0.88 0.84c-0.94,0.94 -1.73,2.08 -2.28,3.29 -0.55,1.23 -0.53,1.2 -0.85,2.6 -0.17,0.73 0.46,1.64 0.84,2.26 1.81,2.97 7.63,2.36 10.22,2.36 0.77,0 1.54,0.01 2.3,0 1.13,0 0.85,-0.29 2.01,-0.29 0.19,-0.45 -0.17,-0.06 1,-0.54 3.21,-1.28 12.51,-4.42 14.59,-5.42 0.28,-0.14 0.69,-0.3 0.97,-0.39 0.12,0.65 -0.07,0.52 0.42,0.88l-0.08 -0.68c0.03,-0.03 0.07,-0.11 0.08,-0.09 0.14,0.26 0.13,-0.13 0.17,-0.17 0.61,-0.57 1.5,-0.92 2.2,-1.39 2.78,-1.91 7.37,-5.63 6.75,-9.5 -0.07,-0.42 -0.17,-0.54 -0.29,-0.8 -0.98,-2.14 -1.49,-2.17 -3.33,-2.67 -0.31,-0.08 -0.37,-0.19 -0.77,-0.24 -0.38,-0.05 -0.65,0.03 -1,0 -0.69,-0.05 -0.22,-0.06 -0.78,-0.22 -0.56,-0.17 -1.45,0.04 -1.87,-0.21 -0.63,0.24 -0.87,0.09 -1.63,0.15 -0.58,0.04 -0.88,0.23 -1.46,0.28z"/>
   <path class="fil0 str0" d="M255.99 412.27c0.4,0.32 0.14,0.02 0.51,1.33 0.15,0.51 0.08,0.32 0.25,0.76l1.37 3.43 0.29 -0.05c0.2,1.05 0.6,1.85 1.09,2.86 0.32,0.67 0.25,0.73 0.95,1.06 3.04,1.37 4.46,0.54 7.26,-0.27 1.31,-0.38 3.77,-1.69 4.74,-2.37 0.8,-0.56 2.98,-2.09 3.18,-2.93 0.28,-1.17 -0.55,-1.92 -0.57,-3.68l-0.27 0.1c-0.11,-0.8 -0.96,-3.29 -1.29,-4.33 -0.1,-0.32 -0.47,-1.07 -0.53,-1.38 -0.49,-0.36 -0.3,-0.23 -0.42,-0.88 -0.28,0.09 -0.69,0.25 -0.97,0.39 -2.08,1 -11.38,4.14 -14.59,5.42 -1.17,0.48 -0.81,0.09 -1,0.54z"/>
   <path class="fil0 str0" d="M257.03 425.14c0.37,-0.26 2.66,0.3 3.52,0.31 3.52,0.03 6.92,-1.04 10.1,-2.39 2.72,-1.15 5.59,-2.39 8.04,-4.38 0.83,-0.67 1.81,-1.83 2.11,-1.95 -0.32,1.5 -2.95,3.48 -4.25,4.27 -2,1.21 -3.56,1.81 -5.84,2.76 -4.22,1.74 -9.39,3.34 -13.68,1.38zm1.09 -7.35l-1.19 1.44c-1.01,1.2 -1.74,2.64 -2.37,4.06 -0.21,0.47 -0.18,0.62 -0.17,1.28 0.01,1.18 0.65,1.62 1.78,2.08 1.26,0.52 1.93,0.49 3.38,0.49 0.64,0 2.12,0.07 2.67,-0.04 0.5,-0.1 0.31,-0.22 1.04,-0.25 2.64,-0.14 1.04,-0.16 2.29,-0.28 1.51,-0.15 3.65,-0.97 5.04,-1.54l2.76 -1.1c0.16,-0.07 0.25,-0.1 0.41,-0.16 0.2,-0.08 0.27,-0.12 0.49,-0.22l3.57 -1.7 0.77 -0.55c0.98,-0.86 0.92,-0.57 2.08,-1.77 1.2,-1.22 1.42,-2.18 1.4,-3.7l-0.26 -1.09c-0.04,-0.09 -0.08,-0.17 -0.15,-0.28l-1.1 -1.05 -1.81 -0.79c-0.55,-0.19 -2.66,-0.15 -3.69,-0.21 0.02,1.76 0.85,2.51 0.57,3.68 -0.2,0.84 -2.38,2.37 -3.18,2.93 -0.97,0.68 -3.43,1.99 -4.74,2.37 -2.8,0.81 -4.22,1.64 -7.26,0.27 -0.7,-0.33 -0.63,-0.39 -0.95,-1.06 -0.49,-1.01 -0.89,-1.81 -1.09,-2.86l-0.29 0.05z"/>
   <path class="fil0 str0" d="M236.67 356.67l-0.18 0.36c-0.27,0.54 -0.39,0.69 -0.42,1.34 -0.05,0.73 0.1,1.25 0.36,1.83 0.41,0.9 1.36,1.73 2.62,1.55 1.32,-0.18 1.83,-0.91 2.52,-1.77 1.75,-2.17 2.12,-2.53 4.94,-3.77l1.02 -0.52c1.74,-0.84 4.08,-1.37 5.27,-3.92 0.52,-1.11 0.02,-0.66 1.02,-1.26 0.58,-0.28 1.09,-0.47 1.65,-0.76 0.3,-0.16 0.48,-0.26 0.74,-0.41 0.41,-0.26 0.38,-0.35 0.76,-0.39l0 -0.58c-1.06,0.03 -1.06,0.36 -1.92,0.78l-1.78 0.76c-0.33,-3.79 -5,-3.94 -9.05,-0.14 -1.84,1.73 -3.66,3.99 -5.63,5.26 -0.37,0.23 -0.68,0.53 -1.03,0.81 -0.3,0.25 -0.75,0.46 -0.89,0.83z"/>
   <path class="fil0 str0" d="M233.53 323.58c-0.4,0 -1.75,0.83 -2.14,1.65l-0.27 3.56c0.49,3.23 0.12,4.41 1.86,4.98 2.03,0.66 6.65,-1.12 7.78,-2.18 0.12,-0.11 0.31,-0.31 0.41,-0.43 1.36,-1.62 0.64,-1.93 -0.63,-3.81 -0.52,-0.77 -1.22,-1.49 -1.39,-2.28 -0.18,-0.4 -0.2,-0.23 -0.46,-0.58 -0.02,-0.02 -0.04,-0.06 -0.06,-0.08 -1.25,-1.74 -1.3,-1.48 -3.47,-1.48 -0.18,0.21 0.06,0.1 -0.38,0.29l-1.25 0.36z"/>
   <path class="fil0 str0" d="M233.53 323.58l1.25 -0.36c0.44,-0.19 0.2,-0.08 0.38,-0.29 -0.38,-0.5 -0.24,-0.33 -0.37,-0.98l-1.42 -4.44c-0.01,-0.03 -0.02,-0.07 -0.03,-0.11l-1.69 -4.6c-0.07,-0.2 -0.09,-0.29 -0.17,-0.54 -0.01,-0.04 -0.03,-0.07 -0.04,-0.11l-0.15 -0.42c-0.01,-0.04 -0.02,-0.07 -0.03,-0.11l-0.79 -2.35c-0.28,-0.74 -0.47,-1.26 -0.73,-1.99l-0.48 -1.38c-0.03,-0.08 -0.13,-0.33 -0.2,-0.51l-0.45 -1.27c-0.01,-0.04 -0.02,-0.08 -0.03,-0.11l-0.1 -0.33c-0.02,-0.03 -0.03,-0.07 -0.04,-0.1 -0.01,-0.04 -0.03,-0.08 -0.04,-0.11l-1.41 -3.87c-0.17,-0.46 -0.19,-0.48 -0.36,-0.93l-0.41 -1.17c-0.01,-0.03 -0.03,-0.07 -0.04,-0.1l-0.42 -1.15c-0.01,-0.04 -0.02,-0.08 -0.03,-0.11l-0.12 -0.31c-0.22,-0.58 -1.02,-2.83 -1.46,-3.26 -0.22,-0.21 -0.18,-0.16 -0.48,-0.23 -0.3,0.61 0,0.83 0.14,1.43 0.01,0.04 0.01,0.08 0.02,0.12 0.01,0.04 0.02,0.07 0.03,0.11 0.11,0.41 -0.02,-0.06 0.11,0.32l1.65 5.07c0.32,0.84 -0.23,-0.67 0.08,0.2 0.05,0.15 0.12,0.32 0.18,0.54l2.17 6.84c0.05,0.17 0.09,0.29 0.13,0.43 0.02,0.05 0.06,0.17 0.08,0.21l0.71 2.3c0.12,0.4 0.15,0.55 0.29,0.99l0.18 0.54c0.01,0.03 0.03,0.07 0.04,0.1 0.04,0.14 0.05,0.2 0.09,0.34l2.05 6.24c0.06,0.2 0.11,0.39 0.16,0.56 0.38,1.23 0.68,2.71 1.3,3.84 0.25,0.46 0.34,0.46 0.45,1.06z"/>
   <path class="fil0 str0" d="M262.69 365.96c-0.21,-0.47 -0.16,-0.37 -0.34,-0.95l-0.07 -0.22c-0.01,-0.03 -0.02,-0.07 -0.04,-0.1l-1.65 -5.49c-0.26,-0.79 -0.68,-1.51 -0.76,-2.39l0 0.71c-0.56,0.02 -0.29,0.03 -0.48,0.11l-0.37 0.22c-0.83,0.45 -2.12,0.54 -2.67,0.96 0.14,0.6 0.53,1.62 0.75,2.17l0.41 1.01c0.3,1.06 1.66,5.26 2.08,5.56 1.01,-0.21 2.19,-1.53 3.14,-1.59z"/>
   <path class="fil0 str0" d="M253.82 350.51c-0.33,0.47 0.63,3.26 0.93,3.93 0.48,1.07 0.76,2.92 1.37,3.72l0.64 -0.17c0.86,-0.39 2.07,-1.14 3.07,-1.18 -0.41,-0.6 -0.36,-0.97 -0.51,-1.49l-0.11 -0.32c-0.02,-0.03 -0.03,-0.07 -0.04,-0.1l-0.07 -0.22c-0.01,-0.04 -0.02,-0.07 -0.03,-0.11l-0.15 -0.42c-0.04,-0.12 -0.06,-0.2 -0.1,-0.33 -0.02,-0.03 -0.03,-0.07 -0.04,-0.11 -0.01,-0.03 -0.02,-0.07 -0.03,-0.11 -0.04,-0.1 -0.08,-0.2 -0.12,-0.31 -0.2,-0.52 -1.33,-4.17 -1.66,-4.34 -0.38,0.04 -0.35,0.13 -0.76,0.39 -0.26,0.15 -0.44,0.25 -0.74,0.41 -0.56,0.29 -1.07,0.48 -1.65,0.76z"/>
   <path class="fil0 str0" d="M246.36 410.7c0.99,0.89 7.04,-0.03 8.23,-0.24 6.71,-1.19 9.72,-2.55 15.78,-5.35 2.83,-1.3 5.25,-2.25 7.39,-4.65 0.59,-0.66 2.31,-2.72 2.4,-3.81 -1.29,0.77 -2.06,4.84 -9.99,7.97 -1.35,0.53 -2.89,1.16 -4.26,1.74 -1.15,0.48 -3.08,1.1 -4.29,1.51 -3.02,1.03 -4.42,1.21 -7.05,1.97 -1.67,0.48 -3.71,0.47 -5.37,0.63 -0.9,0.09 -2.34,-0.09 -2.84,0.23z"/>
   <path class="fil0 str0" d="M264.96 381.36c-0.3,0.75 0.5,2.33 0.83,3.07 0.59,1.34 0.67,2.08 1.01,2.85 0.65,-0.11 0.87,-0.36 1.26,-0.67l0.39 -0.33c0.03,-0.02 0.06,-0.05 0.08,-0.07 0.21,-0.16 -0.31,-0.14 0.45,-0.24 0.19,-0.57 -1.35,-4.49 -1.55,-5.02 -0.27,-0.73 -0.1,-0.57 -0.45,-1.15 -0.46,0.15 -0.63,0.56 -1.01,0.88 -0.21,0.17 -0.32,0.27 -0.55,0.44 -0.29,0.22 0.1,0.08 -0.46,0.24z"/>
   <path class="fil0 str0" d="M265.28 380.46c0.7,-0.29 1.02,-1.21 1.7,-1.37l-1.72 -4.98 -0.04 0.62c-0.55,0.12 -0.39,0.11 -0.7,0.24l-2.03 0.71c0.23,0.93 0.56,1.6 0.92,2.58 0.3,0.82 0.66,1.89 1,2.55 0.51,-0.17 0.15,-0.21 0.87,-0.35z"/>
   <path class="fil0 str0" d="M257.03 425.14c4.29,1.96 9.46,0.36 13.68,-1.38 2.28,-0.95 3.84,-1.55 5.84,-2.76 1.3,-0.79 3.93,-2.77 4.25,-4.27 -0.3,0.12 -1.28,1.28 -2.11,1.95 -2.45,1.99 -5.32,3.23 -8.04,4.38 -3.18,1.35 -6.58,2.42 -10.1,2.39 -0.86,-0.01 -3.15,-0.57 -3.52,-0.31z"/>
   <path class="fil0 str0" d="M229.19 337.13c4.18,0.67 8.39,-0.46 11.64,-1.91 2.2,-0.98 7.41,-4.53 7.59,-6.47l-3.73 3.19c-2.92,2.22 -5.89,3.57 -9.45,4.43 -0.93,0.23 -5.29,0.85 -6.05,0.76z"/>
   <path class="fil0 str0" d="M265.26 374.11c-0.02,-0.04 -0.03,-0.12 -0.04,-0.1l-0.98 -3.17c-0.01,-0.04 -0.02,-0.07 -0.03,-0.11 -0.01,-0.04 -0.03,-0.07 -0.04,-0.11 -0.14,-0.48 -0.18,-0.24 -0.19,-0.78 -0.42,0.16 -0.33,0.27 -0.7,0.56l-0.28 0.2c-0.14,0.1 -0.41,0.27 -0.42,0.28 -0.38,0.27 -0.17,0.18 -0.7,0.45 -0.43,0.22 -0.44,0.19 -0.81,0.49 0.14,0.59 0.11,0.3 0.3,0.72l0.24 0.6c0.01,0.04 0.02,0.07 0.04,0.11l0.6 1.87c1.39,0.19 1.01,-1 3.01,-1.01z"/>
   <path class="fil0 str0" d="M263.69 369.06c-0.01,-0.45 -0.2,-0.89 -0.36,-1.31 -0.12,-0.28 -0.12,-0.24 -0.27,-0.61 -0.1,-0.26 -0.13,-0.39 -0.23,-0.61 -1.25,1.14 -2.02,1.09 -3.15,1.57 0.17,0.87 0.67,1.78 0.93,2.8 0.66,-0.1 0.74,-0.2 1.31,-0.48l0.18 -0.09c0.86,-0.43 0.84,-0.83 1.59,-1.27z"/>
   <path class="fil0 str0" d="M265.28 380.46l-0.23 0.27c-0.03,0.03 -0.06,0.06 -0.09,0.08 -0.16,0.14 -0.16,0.11 -0.33,0.23 -0.26,0.18 -0.36,0.22 -0.5,0.48 0.41,-0.01 0.51,-0.06 0.83,-0.16 0.56,-0.16 0.17,-0.02 0.46,-0.24 0.23,-0.17 0.34,-0.27 0.55,-0.44 0.38,-0.32 0.55,-0.73 1.01,-0.88l0 -0.71c-0.68,0.16 -1,1.08 -1.7,1.37z"/>
  </g>
 </g>
</svg>
