<svg xmlns="http://www.w3.org/2000/svg" xmlns:xlink="http://www.w3.org/1999/xlink" width="500" zoomAndPan="magnify" viewBox="0 0 375 374.999991" height="500" preserveAspectRatio="xMidYMid meet" version="1.0"><defs><clipPath id="2a72fe3fa7"><path d="M 65.453125 25 L 309.203125 25 L 309.203125 375 L 65.453125 375 Z M 65.453125 25 " clip-rule="nonzero"/></clipPath></defs><g clip-path="url(#2a72fe3fa7)"><path fill="#191919" d="M 309.28125 357.082031 C 309.28125 366.984375 301.257812 375.019531 291.347656 375.019531 L 83.5 375.019531 C 73.589844 375.019531 65.566406 366.984375 65.566406 357.082031 L 65.566406 43.039062 C 65.566406 33.132812 73.589844 25.101562 83.5 25.101562 L 291.347656 25.101562 C 301.257812 25.101562 309.28125 33.132812 309.28125 43.039062 L 309.28125 357.082031 " fill-opacity="1" fill-rule="nonzero"/></g><path fill="#ffffff" d="M 286.574219 352.886719 L 88.273438 352.886719 L 88.273438 38.859375 L 286.574219 38.859375 L 286.574219 352.886719 " fill-opacity="1" fill-rule="nonzero"/><path fill="#bcbbbc" d="M 231.648438 51.261719 C 231.648438 57.289062 226.757812 62.183594 220.738281 62.183594 L 154.109375 62.183594 C 148.089844 62.183594 143.199219 57.289062 143.199219 51.261719 L 143.199219 26.460938 C 143.199219 20.414062 148.089844 15.519531 154.109375 15.519531 L 220.738281 15.519531 C 226.757812 15.519531 231.648438 20.414062 231.648438 26.460938 L 231.648438 51.261719 " fill-opacity="1" fill-rule="nonzero"/><path fill="#bcbbbc" d="M 206.695312 20.921875 C 206.695312 23.570312 204.5625 25.707031 201.9375 25.707031 L 172.910156 25.707031 C 170.285156 25.707031 168.152344 23.570312 168.152344 20.921875 L 168.152344 10.132812 C 168.152344 7.484375 170.285156 5.347656 172.910156 5.347656 L 201.9375 5.347656 C 204.5625 5.347656 206.695312 7.484375 206.695312 10.132812 Z M 209.621094 -0.0195312 L 165.226562 -0.0195312 C 161.207031 -0.0195312 157.941406 3.230469 157.941406 7.257812 L 157.941406 23.777344 C 157.941406 27.824219 161.207031 31.074219 165.226562 31.074219 L 209.621094 31.074219 C 213.640625 31.074219 216.90625 27.824219 216.90625 23.777344 L 216.90625 7.257812 C 216.90625 3.230469 213.640625 -0.0195312 209.621094 -0.0195312 " fill-opacity="1" fill-rule="nonzero"/><path fill="#838181" d="M 168.339844 37.367188 C 168.339844 41.488281 165 44.832031 160.886719 44.832031 C 156.753906 44.832031 153.390625 41.488281 153.390625 37.367188 C 153.390625 33.226562 156.753906 29.882812 160.886719 29.882812 C 165 29.882812 168.339844 33.226562 168.339844 37.367188 " fill-opacity="1" fill-rule="nonzero"/><path fill="#838181" d="M 219.113281 37.367188 C 219.113281 41.488281 215.773438 44.832031 211.640625 44.832031 C 207.527344 44.832031 204.183594 41.488281 204.183594 37.367188 C 204.183594 33.226562 207.527344 29.882812 211.640625 29.882812 C 215.773438 29.882812 219.113281 33.226562 219.113281 37.367188 " fill-opacity="1" fill-rule="nonzero"/><path fill="#e8e8e8" d="M 270.492188 135.164062 L 109.207031 135.164062 L 109.207031 99.269531 L 270.492188 99.269531 L 270.492188 135.164062 " fill-opacity="1" fill-rule="nonzero"/><path fill="#e8e8e8" d="M 270.492188 287.089844 L 109.207031 287.089844 L 109.207031 269.152344 L 270.492188 269.152344 L 270.492188 287.089844 " fill-opacity="1" fill-rule="nonzero"/><path fill="#e8e8e8" d="M 270.492188 319.394531 L 109.207031 319.394531 L 109.207031 301.457031 L 270.492188 301.457031 L 270.492188 319.394531 " fill-opacity="1" fill-rule="nonzero"/><path fill="#e8e8e8" d="M 270.492188 245.828125 L 111 245.828125 L 111 151.910156 L 107.414062 151.910156 L 107.414062 249.421875 L 270.492188 249.421875 L 270.492188 245.828125 " fill-opacity="1" fill-rule="nonzero"/><path fill="#e8e8e8" d="M 157.941406 160.28125 L 133.101562 160.28125 L 133.101562 247.625 L 157.941406 247.625 L 157.941406 160.28125 " fill-opacity="1" fill-rule="nonzero"/><path fill="#e8e8e8" d="M 199.84375 199.765625 L 175.003906 199.765625 L 175.003906 247.625 L 199.84375 247.625 L 199.84375 199.765625 " fill-opacity="1" fill-rule="nonzero"/><path fill="#e8e8e8" d="M 236.480469 218.894531 L 211.640625 218.894531 L 211.640625 247.625 L 236.480469 247.625 L 236.480469 218.894531 " fill-opacity="1" fill-rule="nonzero"/><path fill="#e8e8e8" d="M 270.492188 195.875 L 245.632812 195.875 L 245.632812 247.625 L 270.492188 247.625 L 270.492188 195.875 " fill-opacity="1" fill-rule="nonzero"/></svg>